<svg width="180" height="240" viewBox="0 0 180 240" fill="none" xmlns="http://www.w3.org/2000/svg">
<g clip-path="url(#clip0_4_12579)">
<rect x="10" y="210" width="10" height="10" fill="#2A1037"/>
<rect x="20" y="220" width="10" height="10" fill="#2A1037"/>
<rect x="30" y="230" width="10" height="10" fill="#2A1037"/>
<rect y="200" width="10" height="10" fill="#2A1037"/>
<rect y="190" width="10" height="10" fill="#2A1037"/>
<rect y="180" width="10" height="10" fill="#2A1037"/>
<rect y="170" width="10" height="10" fill="#2A1037"/>
<rect x="10" y="60" width="10" height="10" fill="#2A1037"/>
<rect y="70" width="10" height="10" fill="#2A1037"/>
<rect y="80" width="10" height="10" fill="#2A1037"/>
<rect y="90" width="10" height="10" fill="#2A1037"/>
<rect y="100" width="10" height="10" fill="#2A1037"/>
<rect y="110" width="10" height="10" fill="#2A1037"/>
<rect y="120" width="10" height="10" fill="#2A1037"/>
<rect y="130" width="10" height="10" fill="#2A1037"/>
<rect y="140" width="10" height="10" fill="#2A1037"/>
<rect y="150" width="10" height="10" fill="#2A1037"/>
<rect y="160" width="10" height="10" fill="#2A1037"/>
<rect x="20" y="50" width="10" height="10" fill="#2A1037"/>
<rect x="30" y="40" width="10" height="10" fill="#2A1037"/>
<rect x="40" y="70" width="10" height="10" fill="#3D184F"/>
<rect x="50" y="70" width="10" height="10" fill="#3D184F"/>
<rect x="40" y="80" width="10" height="10" fill="#3D184F"/>
<rect x="50" y="80" width="10" height="10" fill="#3D184F"/>
<rect x="60" y="80" width="10" height="10" fill="#3D184F"/>
<rect x="50" y="90" width="10" height="10" fill="#3D184F"/>
<rect x="60" y="90" width="10" height="10" fill="#3D184F"/>
<rect x="70" y="90" width="10" height="10" fill="#3D184F"/>
<rect x="100" y="90" width="10" height="10" fill="#3D184F"/>
<rect x="110" y="90" width="10" height="10" fill="#3D184F"/>
<rect x="120" y="90" width="10" height="10" fill="#3D184F"/>
<rect x="110" y="80" width="10" height="10" fill="#3D184F"/>
<rect x="120" y="80" width="10" height="10" fill="#3D184F"/>
<rect x="130" y="80" width="10" height="10" fill="#3D184F"/>
<rect x="130" y="70" width="10" height="10" fill="#3D184F"/>
<rect x="120" y="70" width="10" height="10" fill="#3D184F"/>
<rect x="130" y="150" width="10" height="10" fill="#3D184F"/>
<rect x="130" y="160" width="10" height="10" fill="#3D184F"/>
<rect x="120" y="160" width="10" height="10" fill="#3D184F"/>
<rect x="120" y="150" width="10" height="10" fill="#3D184F"/>
<rect x="110" y="150" width="10" height="10" fill="#3D184F"/>
<rect x="120" y="140" width="10" height="10" fill="#3D184F"/>
<rect x="110" y="140" width="10" height="10" fill="#3D184F"/>
<rect x="100" y="140" width="10" height="10" fill="#3D184F"/>
<rect x="70" y="140" width="10" height="10" fill="#3D184F"/>
<rect x="60" y="140" width="10" height="10" fill="#3D184F"/>
<rect x="50" y="140" width="10" height="10" fill="#3D184F"/>
<rect x="40" y="150" width="10" height="10" fill="#3D184F"/>
<rect x="50" y="150" width="10" height="10" fill="#3D184F"/>
<rect x="60" y="150" width="10" height="10" fill="#3D184F"/>
<rect x="50" y="160" width="10" height="10" fill="#3D184F"/>
<rect x="40" y="160" width="10" height="10" fill="#3D184F"/>
<rect x="60" y="130" width="10" height="10" fill="#3D184F"/>
<rect x="70" y="130" width="10" height="10" fill="#3D184F"/>
<rect x="75" y="130" width="10" height="10" fill="#3D184F"/>
<rect x="85" y="130" width="10" height="10" fill="#3D184F"/>
<rect x="90" y="130" width="10" height="10" fill="#3D184F"/>
<rect x="100" y="130" width="10" height="10" fill="#3D184F"/>
<rect x="110" y="130" width="10" height="10" fill="#3D184F"/>
<rect x="110" y="100" width="10" height="10" fill="#3D184F"/>
<rect x="100" y="100" width="10" height="10" fill="#3D184F"/>
<rect x="100" y="110" width="10" height="10" fill="#3D184F"/>
<rect x="100" y="120" width="10" height="10" fill="#3D184F"/>
<rect x="90" y="100" width="10" height="10" fill="#3D184F"/>
<rect x="90" y="110" width="10" height="10" fill="#3D184F"/>
<rect x="90" y="120" width="10" height="10" fill="#3D184F"/>
<rect x="80" y="100" width="10" height="10" fill="#3D184F"/>
<rect x="80" y="110" width="10" height="10" fill="#3D184F"/>
<rect x="80" y="120" width="10" height="10" fill="#3D184F"/>
<rect x="70" y="100" width="10" height="10" fill="#3D184F"/>
<rect x="70" y="110" width="10" height="10" fill="#3D184F"/>
<rect x="70" y="120" width="10" height="10" fill="#3D184F"/>
<rect x="60" y="100" width="10" height="10" fill="#3D184F"/>
<rect x="30" y="50" width="10" height="10" fill="#AB49DB"/>
<rect x="30" y="60" width="10" height="10" fill="#E96219"/>
<rect x="30" y="70" width="10" height="10" fill="#5D1680"/>
<rect x="20" y="60" width="10" height="10" fill="#5D1680"/>
<rect x="20" y="170" width="10" height="10" fill="#5D1680"/>
<rect x="30" y="110" width="10" height="10" fill="#5D1680"/>
<rect x="30" y="80" width="10" height="10" fill="#5D1680"/>
<rect x="30" y="120" width="10" height="10" fill="#5D1680"/>
<rect x="30" y="90" width="10" height="10" fill="#5D1680"/>
<rect x="30" y="130" width="10" height="10" fill="#5D1680"/>
<rect x="30" y="150" width="10" height="10" fill="#5D1680"/>
<rect x="30" y="210" width="10" height="10" fill="#521372"/>
<rect x="30" y="100" width="10" height="10" fill="#5D1680"/>
<rect x="30" y="140" width="10" height="10" fill="#5D1680"/>
<rect x="30" y="160" width="10" height="10" fill="#5D1680"/>
<rect x="30" y="220" width="10" height="10" fill="#521372"/>
<rect x="30" y="180" width="10" height="10" fill="#5D1680"/>
<rect x="30" y="200" width="10" height="10" fill="#571776"/>
<rect x="20" y="190" width="10" height="10" fill="#571776"/>
<rect x="20" y="200" width="10" height="10" fill="#571776"/>
<rect x="20" y="210" width="10" height="10" fill="#571776"/>
<rect x="10" y="180" width="10" height="10" fill="#571776"/>
<rect x="30" y="170" width="10" height="10" fill="#E96219"/>
<rect x="40" y="40" width="10" height="10" fill="#2A1037"/>
<rect x="40" y="50" width="10" height="10" fill="#AB49DB"/>
<rect x="40" y="60" width="10" height="10" fill="#E96219"/>
<rect x="40" y="110" width="10" height="10" fill="#5D1680"/>
<rect x="40" y="120" width="10" height="10" fill="#5D1680"/>
<rect x="40" y="90" width="10" height="10" fill="#5D1680"/>
<rect x="40" y="130" width="10" height="10" fill="#5D1680"/>
<rect x="40" y="210" width="10" height="10" fill="#521372"/>
<rect x="40" y="100" width="10" height="10" fill="#5D1680"/>
<rect x="40" y="140" width="10" height="10" fill="#5D1680"/>
<rect x="40" y="220" width="10" height="10" fill="#521372"/>
<rect x="40" y="180" width="10" height="10" fill="#5D1680"/>
<rect x="40" y="200" width="10" height="10" fill="#571776"/>
<rect x="40" y="170" width="10" height="10" fill="#E96219"/>
<rect x="80" y="40" width="10" height="10" fill="#2A1037"/>
<rect x="80" y="50" width="10" height="10" fill="#AB49DB"/>
<rect x="80" y="60" width="10" height="10" fill="#E96219"/>
<rect x="80" y="70" width="10" height="10" fill="#5D1680"/>
<rect x="80" y="80" width="10" height="10" fill="#5D1680"/>
<rect x="80" y="90" width="10" height="10" fill="#5D1680"/>
<rect x="80" y="150" width="10" height="10" fill="#5D1680"/>
<rect x="80" y="210" width="10" height="10" fill="#521372"/>
<rect x="80" y="140" width="10" height="10" fill="#5D1680"/>
<rect x="80" y="160" width="10" height="10" fill="#5D1680"/>
<rect x="80" y="220" width="10" height="10" fill="#521372"/>
<rect x="80" y="180" width="10" height="10" fill="#5D1680"/>
<rect x="80" y="200" width="10" height="10" fill="#571776"/>
<rect x="80" y="170" width="10" height="10" fill="#E96219"/>
<rect x="70" y="40" width="10" height="10" fill="#2A1037"/>
<rect x="70" y="50" width="10" height="10" fill="#AB49DB"/>
<rect x="70" y="60" width="10" height="10" fill="#E96219"/>
<rect x="70" y="70" width="10" height="10" fill="#5D1680"/>
<rect x="70" y="80" width="10" height="10" fill="#5D1680"/>
<rect x="70" y="150" width="10" height="10" fill="#5D1680"/>
<rect x="70" y="210" width="10" height="10" fill="#521372"/>
<rect x="70" y="160" width="10" height="10" fill="#5D1680"/>
<rect x="70" y="220" width="10" height="10" fill="#521372"/>
<rect x="70" y="180" width="10" height="10" fill="#5D1680"/>
<rect x="70" y="200" width="10" height="10" fill="#571776"/>
<rect x="70" y="170" width="10" height="10" fill="#E96219"/>
<rect x="60" y="40" width="10" height="10" fill="#2A1037"/>
<rect x="60" y="50" width="10" height="10" fill="#AB49DB"/>
<rect x="60" y="60" width="10" height="10" fill="#E96219"/>
<rect x="60" y="70" width="10" height="10" fill="#5D1680"/>
<rect x="60" y="110" width="10" height="10" fill="#5D1680"/>
<rect x="60" y="120" width="10" height="10" fill="#5D1680"/>
<rect x="60" y="210" width="10" height="10" fill="#521372"/>
<rect x="60" y="160" width="10" height="10" fill="#5D1680"/>
<rect x="60" y="220" width="10" height="10" fill="#521372"/>
<rect x="60" y="180" width="10" height="10" fill="#5D1680"/>
<rect x="60" y="200" width="10" height="10" fill="#571776"/>
<rect x="60" y="170" width="10" height="10" fill="#E96219"/>
<rect x="50" y="40" width="10" height="10" fill="#2A1037"/>
<rect x="50" y="50" width="10" height="10" fill="#AB49DB"/>
<rect x="50" y="60" width="10" height="10" fill="#E96219"/>
<rect x="10" y="70" width="10" height="10" fill="#5D1680"/>
<rect x="50" y="110" width="10" height="10" fill="#5D1680"/>
<rect x="10" y="110" width="10" height="10" fill="#5D1680"/>
<rect x="10" y="80" width="10" height="10" fill="#5D1680"/>
<rect x="50" y="120" width="10" height="10" fill="#5D1680"/>
<rect x="10" y="120" width="10" height="10" fill="#5D1680"/>
<rect x="10" y="90" width="10" height="10" fill="#5D1680"/>
<rect x="50" y="130" width="10" height="10" fill="#5D1680"/>
<rect x="10" y="130" width="10" height="10" fill="#5D1680"/>
<rect x="50" y="210" width="10" height="10" fill="#521372"/>
<rect x="10" y="150" width="10" height="10" fill="#5D1680"/>
<rect x="50" y="100" width="10" height="10" fill="#5D1680"/>
<rect x="10" y="100" width="10" height="10" fill="#5D1680"/>
<rect x="10" y="140" width="10" height="10" fill="#5D1680"/>
<rect x="50" y="220" width="10" height="10" fill="#521372"/>
<rect x="10" y="160" width="10" height="10" fill="#5D1680"/>
<rect x="50" y="180" width="10" height="10" fill="#5D1680"/>
<rect x="50" y="200" width="10" height="10" fill="#571776"/>
<rect x="50" y="170" width="10" height="10" fill="#E96219"/>
<rect x="10" y="170" width="10" height="10" fill="#2A1037"/>
<rect x="20" y="180" width="10" height="10" fill="#2A1037"/>
<rect x="30" y="190" width="10" height="10" fill="#2A1037"/>
<rect x="40" y="190" width="10" height="10" fill="#2A1037"/>
<rect x="50" y="190" width="10" height="10" fill="#2A1037"/>
<rect x="60" y="190" width="10" height="10" fill="#2A1037"/>
<rect x="70" y="190" width="10" height="10" fill="#2A1037"/>
<rect x="80" y="190" width="10" height="10" fill="#2A1037"/>
<rect x="50" y="230" width="10" height="10" fill="#2A1037"/>
<rect x="60" y="230" width="10" height="10" fill="#2A1037"/>
<rect x="70" y="230" width="10" height="10" fill="#2A1037"/>
<rect x="80" y="230" width="10" height="10" fill="#2A1037"/>
<rect x="40" y="230" width="10" height="10" fill="#2A1037"/>
<rect width="10" height="10" transform="matrix(-1 0 0 1 120 40)" fill="#2A1037"/>
<rect width="10" height="10" transform="matrix(-1 0 0 1 120 50)" fill="#AB49DB"/>
<rect width="10" height="10" transform="matrix(-1 0 0 1 120 60)" fill="#E96219"/>
<rect width="10" height="10" transform="matrix(-1 0 0 1 120 70)" fill="#5D1680"/>
<rect width="10" height="10" transform="matrix(-1 0 0 1 120 110)" fill="#5D1680"/>
<rect width="10" height="10" transform="matrix(-1 0 0 1 120 120)" fill="#5D1680"/>
<rect width="10" height="10" transform="matrix(-1 0 0 1 120 210)" fill="#521372"/>
<rect width="10" height="10" transform="matrix(-1 0 0 1 120 160)" fill="#5D1680"/>
<rect width="10" height="10" transform="matrix(-1 0 0 1 120 220)" fill="#521372"/>
<rect width="10" height="10" transform="matrix(-1 0 0 1 120 180)" fill="#5D1680"/>
<rect width="10" height="10" transform="matrix(-1 0 0 1 120 200)" fill="#571776"/>
<rect width="10" height="10" transform="matrix(-1 0 0 1 120 170)" fill="#E96219"/>
<rect width="10" height="10" transform="matrix(-1 0 0 1 120 190)" fill="#2A1037"/>
<rect width="10" height="10" transform="matrix(-1 0 0 1 120 230)" fill="#2A1037"/>
<rect width="10" height="10" transform="matrix(-1 0 0 1 30 70)" fill="#E96219"/>
<rect width="10" height="10" transform="matrix(-1 0 0 1 30 80)" fill="#E96219"/>
<rect width="10" height="10" transform="matrix(-1 0 0 1 30 90)" fill="#E96219"/>
<rect width="10" height="10" transform="matrix(-1 0 0 1 30 100)" fill="#E96219"/>
<rect width="10" height="10" transform="matrix(-1 0 0 1 30 110)" fill="#E96219"/>
<rect width="10" height="10" transform="matrix(-1 0 0 1 30 120)" fill="#E96219"/>
<rect width="10" height="10" transform="matrix(-1 0 0 1 30 130)" fill="#E96219"/>
<rect width="10" height="10" transform="matrix(-1 0 0 1 30 140)" fill="#E96219"/>
<rect width="10" height="10" transform="matrix(-1 0 0 1 30 150)" fill="#E96219"/>
<rect width="10" height="10" transform="matrix(-1 0 0 1 30 160)" fill="#E96219"/>
<rect width="10" height="10" transform="matrix(-1 0 0 1 130 40)" fill="#2A1037"/>
<rect width="10" height="10" transform="matrix(-1 0 0 1 130 50)" fill="#AB49DB"/>
<rect width="10" height="10" transform="matrix(-1 0 0 1 130 60)" fill="#E96219"/>
<rect width="10" height="10" transform="matrix(-1 0 0 1 130 110)" fill="#5D1680"/>
<rect width="10" height="10" transform="matrix(-1 0 0 1 130 120)" fill="#5D1680"/>
<rect width="10" height="10" transform="matrix(-1 0 0 1 130 130)" fill="#5D1680"/>
<rect width="10" height="10" transform="matrix(-1 0 0 1 130 210)" fill="#521372"/>
<rect width="10" height="10" transform="matrix(-1 0 0 1 130 100)" fill="#5D1680"/>
<rect width="10" height="10" transform="matrix(-1 0 0 1 130 220)" fill="#521372"/>
<rect width="10" height="10" transform="matrix(-1 0 0 1 130 180)" fill="#5D1680"/>
<rect width="10" height="10" transform="matrix(-1 0 0 1 130 200)" fill="#571776"/>
<rect width="10" height="10" transform="matrix(-1 0 0 1 130 170)" fill="#E96219"/>
<rect width="10" height="10" transform="matrix(-1 0 0 1 130 190)" fill="#2A1037"/>
<rect width="10" height="10" transform="matrix(-1 0 0 1 130 230)" fill="#2A1037"/>
<rect width="10" height="10" transform="matrix(-1 0 0 1 140 40)" fill="#2A1037"/>
<rect width="10" height="10" transform="matrix(-1 0 0 1 140 50)" fill="#AB49DB"/>
<rect width="10" height="10" transform="matrix(-1 0 0 1 140 60)" fill="#E96219"/>
<rect width="10" height="10" transform="matrix(-1 0 0 1 140 110)" fill="#5D1680"/>
<rect width="10" height="10" transform="matrix(-1 0 0 1 140 120)" fill="#5D1680"/>
<rect width="10" height="10" transform="matrix(-1 0 0 1 140 90)" fill="#5D1680"/>
<rect width="10" height="10" transform="matrix(-1 0 0 1 140 130)" fill="#5D1680"/>
<rect width="10" height="10" transform="matrix(-1 0 0 1 140 210)" fill="#521372"/>
<rect width="10" height="10" transform="matrix(-1 0 0 1 140 100)" fill="#5D1680"/>
<rect width="10" height="10" transform="matrix(-1 0 0 1 140 140)" fill="#5D1680"/>
<rect width="10" height="10" transform="matrix(-1 0 0 1 140 220)" fill="#521372"/>
<rect width="10" height="10" transform="matrix(-1 0 0 1 140 180)" fill="#5D1680"/>
<rect width="10" height="10" transform="matrix(-1 0 0 1 140 200)" fill="#571776"/>
<rect width="10" height="10" transform="matrix(-1 0 0 1 140 170)" fill="#E96219"/>
<rect width="10" height="10" transform="matrix(-1 0 0 1 140 190)" fill="#2A1037"/>
<rect width="10" height="10" transform="matrix(-1 0 0 1 140 230)" fill="#2A1037"/>
<rect width="10" height="10" transform="matrix(-1 0 0 1 100 40)" fill="#2A1037"/>
<rect width="10" height="10" transform="matrix(-1 0 0 1 110 40)" fill="#2A1037"/>
<rect width="10" height="10" transform="matrix(-1 0 0 1 100 50)" fill="#AB49DB"/>
<rect width="10" height="10" transform="matrix(-1 0 0 1 110 50)" fill="#AB49DB"/>
<rect width="10" height="10" transform="matrix(-1 0 0 1 100 60)" fill="#E96219"/>
<rect width="10" height="10" transform="matrix(-1 0 0 1 110 60)" fill="#E96219"/>
<rect width="10" height="10" transform="matrix(-1 0 0 1 100 70)" fill="#5D1680"/>
<rect width="10" height="10" transform="matrix(-1 0 0 1 110 70)" fill="#5D1680"/>
<rect width="10" height="10" transform="matrix(-1 0 0 1 100 80)" fill="#5D1680"/>
<rect width="10" height="10" transform="matrix(-1 0 0 1 110 80)" fill="#5D1680"/>
<rect width="10" height="10" transform="matrix(-1 0 0 1 100 90)" fill="#5D1680"/>
<rect width="10" height="10" transform="matrix(-1 0 0 1 100 150)" fill="#5D1680"/>
<rect width="10" height="10" transform="matrix(-1 0 0 1 110 150)" fill="#5D1680"/>
<rect width="10" height="10" transform="matrix(-1 0 0 1 100 210)" fill="#521372"/>
<rect width="10" height="10" transform="matrix(-1 0 0 1 110 210)" fill="#521372"/>
<rect width="10" height="10" transform="matrix(-1 0 0 1 100 140)" fill="#5D1680"/>
<rect width="10" height="10" transform="matrix(-1 0 0 1 100 160)" fill="#5D1680"/>
<rect width="10" height="10" transform="matrix(-1 0 0 1 110 160)" fill="#5D1680"/>
<rect width="10" height="10" transform="matrix(-1 0 0 1 100 220)" fill="#521372"/>
<rect width="10" height="10" transform="matrix(-1 0 0 1 110 220)" fill="#521372"/>
<rect width="10" height="10" transform="matrix(-1 0 0 1 100 180)" fill="#5D1680"/>
<rect width="10" height="10" transform="matrix(-1 0 0 1 110 180)" fill="#5D1680"/>
<rect width="10" height="10" transform="matrix(-1 0 0 1 100 200)" fill="#571776"/>
<rect width="10" height="10" transform="matrix(-1 0 0 1 110 200)" fill="#571776"/>
<rect width="10" height="10" transform="matrix(-1 0 0 1 100 170)" fill="#E96219"/>
<rect width="10" height="10" transform="matrix(-1 0 0 1 110 170)" fill="#E96219"/>
<rect width="10" height="10" transform="matrix(-1 0 0 1 100 190)" fill="#2A1037"/>
<rect width="10" height="10" transform="matrix(-1 0 0 1 110 190)" fill="#2A1037"/>
<rect width="10" height="10" transform="matrix(-1 0 0 1 100 230)" fill="#2A1037"/>
<rect width="10" height="10" transform="matrix(-1 0 0 1 110 230)" fill="#2A1037"/>
<rect x="10" y="200" width="10" height="10" fill="#521372"/>
<rect x="10" y="190" width="10" height="10" fill="#521372"/>
<rect width="10" height="10" transform="matrix(-1 0 0 1 170 210)" fill="#2A1037"/>
<rect width="10" height="10" transform="matrix(-1 0 0 1 160 220)" fill="#2A1037"/>
<rect width="10" height="10" transform="matrix(-1 0 0 1 150 230)" fill="#2A1037"/>
<rect width="10" height="10" transform="matrix(-1 0 0 1 180 200)" fill="#2A1037"/>
<rect width="10" height="10" transform="matrix(-1 0 0 1 180 190)" fill="#2A1037"/>
<rect width="10" height="10" transform="matrix(-1 0 0 1 180 180)" fill="#2A1037"/>
<rect width="10" height="10" transform="matrix(-1 0 0 1 180 170)" fill="#2A1037"/>
<rect width="10" height="10" transform="matrix(-1 0 0 1 170 60)" fill="#2A1037"/>
<rect width="10" height="10" transform="matrix(-1 0 0 1 180 70)" fill="#2A1037"/>
<rect width="10" height="10" transform="matrix(-1 0 0 1 180 80)" fill="#2A1037"/>
<rect width="10" height="10" transform="matrix(-1 0 0 1 180 90)" fill="#2A1037"/>
<rect width="10" height="10" transform="matrix(-1 0 0 1 180 100)" fill="#2A1037"/>
<rect width="10" height="10" transform="matrix(-1 0 0 1 180 110)" fill="#2A1037"/>
<rect width="10" height="10" transform="matrix(-1 0 0 1 180 120)" fill="#2A1037"/>
<rect width="10" height="10" transform="matrix(-1 0 0 1 180 130)" fill="#2A1037"/>
<rect width="10" height="10" transform="matrix(-1 0 0 1 180 140)" fill="#2A1037"/>
<rect width="10" height="10" transform="matrix(-1 0 0 1 180 150)" fill="#2A1037"/>
<rect width="10" height="10" transform="matrix(-1 0 0 1 180 160)" fill="#2A1037"/>
<rect width="10" height="10" transform="matrix(-1 0 0 1 160 50)" fill="#2A1037"/>
<rect width="10" height="10" transform="matrix(-1 0 0 1 150 40)" fill="#2A1037"/>
<rect width="10" height="10" transform="matrix(-1 0 0 1 150 50)" fill="#AB49DB"/>
<rect width="10" height="10" transform="matrix(-1 0 0 1 150 60)" fill="#E96219"/>
<rect width="10" height="10" transform="matrix(-1 0 0 1 150 70)" fill="#5D1680"/>
<rect width="10" height="10" transform="matrix(-1 0 0 1 160 60)" fill="#5D1680"/>
<rect width="10" height="10" transform="matrix(-1 0 0 1 160 170)" fill="#5D1680"/>
<rect width="10" height="10" transform="matrix(-1 0 0 1 150 110)" fill="#5D1680"/>
<rect width="10" height="10" transform="matrix(-1 0 0 1 150 80)" fill="#5D1680"/>
<rect width="10" height="10" transform="matrix(-1 0 0 1 150 120)" fill="#5D1680"/>
<rect width="10" height="10" transform="matrix(-1 0 0 1 150 90)" fill="#5D1680"/>
<rect width="10" height="10" transform="matrix(-1 0 0 1 150 130)" fill="#5D1680"/>
<rect width="10" height="10" transform="matrix(-1 0 0 1 150 150)" fill="#5D1680"/>
<rect width="10" height="10" transform="matrix(-1 0 0 1 150 210)" fill="#521372"/>
<rect width="10" height="10" transform="matrix(-1 0 0 1 150 100)" fill="#5D1680"/>
<rect width="10" height="10" transform="matrix(-1 0 0 1 150 140)" fill="#5D1680"/>
<rect width="10" height="10" transform="matrix(-1 0 0 1 150 160)" fill="#5D1680"/>
<rect width="10" height="10" transform="matrix(-1 0 0 1 150 220)" fill="#521372"/>
<rect width="10" height="10" transform="matrix(-1 0 0 1 150 180)" fill="#5D1680"/>
<rect width="10" height="10" transform="matrix(-1 0 0 1 150 200)" fill="#571776"/>
<rect width="10" height="10" transform="matrix(-1 0 0 1 160 190)" fill="#571776"/>
<rect width="10" height="10" transform="matrix(-1 0 0 1 160 200)" fill="#571776"/>
<rect width="10" height="10" transform="matrix(-1 0 0 1 160 210)" fill="#571776"/>
<rect width="10" height="10" transform="matrix(-1 0 0 1 170 180)" fill="#571776"/>
<rect width="10" height="10" transform="matrix(-1 0 0 1 150 170)" fill="#E96219"/>
<rect width="10" height="10" transform="matrix(-1 0 0 1 170 70)" fill="#5D1680"/>
<rect width="10" height="10" transform="matrix(-1 0 0 1 170 110)" fill="#5D1680"/>
<rect width="10" height="10" transform="matrix(-1 0 0 1 170 80)" fill="#5D1680"/>
<rect width="10" height="10" transform="matrix(-1 0 0 1 170 120)" fill="#5D1680"/>
<rect width="10" height="10" transform="matrix(-1 0 0 1 170 90)" fill="#5D1680"/>
<rect width="10" height="10" transform="matrix(-1 0 0 1 170 130)" fill="#5D1680"/>
<rect width="10" height="10" transform="matrix(-1 0 0 1 170 150)" fill="#5D1680"/>
<rect width="10" height="10" transform="matrix(-1 0 0 1 170 100)" fill="#5D1680"/>
<rect width="10" height="10" transform="matrix(-1 0 0 1 170 140)" fill="#5D1680"/>
<rect width="10" height="10" transform="matrix(-1 0 0 1 170 160)" fill="#5D1680"/>
<rect width="10" height="10" transform="matrix(-1 0 0 1 170 170)" fill="#2A1037"/>
<rect width="10" height="10" transform="matrix(-1 0 0 1 160 180)" fill="#2A1037"/>
<rect width="10" height="10" transform="matrix(-1 0 0 1 150 190)" fill="#2A1037"/>
<rect x="150" y="70" width="10" height="10" fill="#E96219"/>
<rect x="150" y="80" width="10" height="10" fill="#E96219"/>
<rect x="150" y="90" width="10" height="10" fill="#E96219"/>
<rect x="150" y="100" width="10" height="10" fill="#E96219"/>
<rect x="150" y="110" width="10" height="10" fill="#E96219"/>
<rect x="150" y="120" width="10" height="10" fill="#E96219"/>
<rect x="150" y="130" width="10" height="10" fill="#E96219"/>
<rect x="150" y="140" width="10" height="10" fill="#E96219"/>
<rect x="150" y="150" width="10" height="10" fill="#E96219"/>
<rect x="150" y="160" width="10" height="10" fill="#E96219"/>
<rect width="10" height="10" transform="matrix(-1 0 0 1 170 200)" fill="#521372"/>
<rect width="10" height="10" transform="matrix(-1 0 0 1 170 190)" fill="#521372"/>
</g>
<defs>
<clipPath id="clip0_4_12579">
<rect width="180" height="240" fill="white"/>
</clipPath>
</defs>
</svg>
